<?xml version="1.0" encoding="UTF-8"?>
<!DOCTYPE svg PUBLIC "-//W3C//DTD SVG 1.1//EN" "http://www.w3.org/Graphics/SVG/1.1/DTD/svg11.dtd">
<!-- Creator: CorelDRAW 2017 -->
<svg xmlns="http://www.w3.org/2000/svg" xml:space="preserve" width="206px" height="206px" version="1.1" style="shape-rendering:geometricPrecision; text-rendering:geometricPrecision; image-rendering:optimizeQuality; fill-rule:evenodd; clip-rule:evenodd"
viewBox="0 0 15.63 15.63"
 xmlns:xlink="http://www.w3.org/1999/xlink">
 <defs>
  <style type="text/css">
   <![CDATA[
    .fil2 {fill:none}
    .fil1 {fill:#2B79C3}
    .fil0 {fill:#3A4652}
   ]]>
  </style>
 </defs>
 <g id="Слой_x0020_1">
  <metadata id="CorelCorpID_0Corel-Layer"/>
  <g id="_2027320205440">
   <g>
    <path class="fil0" d="M6.43 11.79c-0.08,-0.38 -0.18,-0.84 -0.23,-1.22 -0.05,-0.31 0.08,-0.95 -0.28,-1 -0.39,-0.06 -0.25,0.63 -0.32,1.06 -0.06,0.34 -0.13,0.89 -0.26,1.1 -0.33,-0.57 -0.69,-1.91 -0.83,-2.58 -0.78,-0.01 -1.7,0.46 -1.89,1.32 -0.12,0.55 -0.43,2.24 -0.24,2.71 0.33,0.19 6.57,0.2 7,0.03 0.24,-0.48 -0.07,-2.23 -0.21,-2.8 -0.23,-0.88 -1.03,-1.12 -1.85,-1.3 -0.31,0.88 -0.43,1.85 -0.89,2.68z"/>
    <path class="fil0" d="M4.14 5.88c0.05,0.82 -0.04,0.37 -0.13,0.8 -0.06,0.33 0.2,0.46 0.38,0.63 0.27,0.24 0.38,0.8 0.88,1.17 0.81,0.61 1.54,-0.11 1.9,-0.82 0.25,-0.49 0.16,-0.21 0.46,-0.53 0.39,-0.43 0.07,-0.52 0.01,-0.8 -0.08,-0.36 0.39,-1.4 -1.1,-2.01 -1.05,-0.43 -2.46,0.34 -2.4,1.56z"/>
    <path class="fil1" d="M5.96 2.87c0.61,-0.09 6.37,-0.1 6.78,0.03 0.07,0.43 0.11,2.5 -0.05,2.78 -0.34,0.14 -1.53,0.04 -1.97,0.04 -0.99,0.01 -0.73,0.35 -1.31,0.76 -0.37,-0.68 0.33,-0.74 -1.31,-0.7l0 0.47 0.73 0.02 0.05 1.24c0.36,0.15 1.2,-0.9 1.43,-1.25 2.48,-0.01 2.99,0.3 2.98,-1.11 0,-2.6 0.29,-2.85 -1.28,-2.84 -1.23,0.01 -2.59,0 -3.94,0 -2.85,0 -2.59,-0.25 -2.67,1.5l0.52 -0.06 0.04 -0.88z"/>
   </g>
   <rect class="fil2" width="15.63" height="15.63"/>
  </g>
 </g>
</svg>
