<?xml version="1.0" encoding="UTF-8"?>
<!DOCTYPE svg PUBLIC "-//W3C//DTD SVG 1.1//EN" "http://www.w3.org/Graphics/SVG/1.1/DTD/svg11.dtd">
<!-- Creator: CorelDRAW 2017 -->
<svg xmlns="http://www.w3.org/2000/svg" xml:space="preserve" width="206px" height="206px" version="1.1" style="shape-rendering:geometricPrecision; text-rendering:geometricPrecision; image-rendering:optimizeQuality; fill-rule:evenodd; clip-rule:evenodd"
viewBox="0 0 15.63 15.63"
 xmlns:xlink="http://www.w3.org/1999/xlink">
 <defs>
  <style type="text/css">
   <![CDATA[
    .fil3 {fill:none}
    .fil2 {fill:#2B79C3}
    .fil0 {fill:#3A4652}
    .fil1 {fill:white}
   ]]>
  </style>
 </defs>
 <g id="Слой_x0020_1">
  <metadata id="CorelCorpID_0Corel-Layer"/>
  <g id="_2027332985664">
   <g>
    <path class="fil0" d="M9.82 5.45c0.77,0.25 2.98,1.07 2.98,1.88l-0.01 5.47 -5.64 0 0 -3.5c0,-1.26 2.66,-1 2.67,-2.35l-0.01 -1.21 0.01 -0.29zm-6.94 2.14l3.75 0 0 5.21 -3.76 -0.03 0.01 -5.18zm2.38 -4.74l4.03 0 -0.02 4.33 -2.11 1.08 -0.06 -1.16c-0.43,-0.01 -1.41,-0.08 -1.78,-0.02l-0.07 -3.84 0.01 -0.39zm-0.56 4.22c-3.05,0.02 -2.34,-0.87 -2.36,5.04 0,1.35 -0.11,1.21 1.25,1.21 1.18,0 9.17,0.13 9.6,-0.1 0.21,-0.33 0.18,-5.95 0.1,-6.68l-3.48 -1.69c0.01,-0.51 0.09,-1.98 -0.08,-2.37 -0.36,-0.27 -4.47,-0.27 -4.88,-0.03 -0.31,0.5 0.03,3.73 -0.15,4.62z"/>
    <path class="fil1" d="M10.82 11.01l1.14 -0.01 -0.03 0.95 -1.09 -0.01 -0.02 -0.93zm-2.95 -0.01l1.08 0.01 -0.01 0.93 -1.1 -0.01 0.03 -0.93zm2.96 -1.67l1.12 -0.02 -0.02 0.97 -1.1 -0.03 0 -0.92zm-1.48 -0.02l1.11 0.03 -0.01 0.93 -1.12 0.01 0.02 -0.97zm-1.49 0.01l1.09 0.04 0 0.91 -1.1 0 0.01 -0.95zm2.99 -1.67l1.11 -0.01 -0.01 0.99 -1.12 0 0.02 -0.98zm-1.04 -1.91l0.01 1.21c-0.01,1.35 -2.67,1.09 -2.67,2.35l0 3.5 5.64 0 0.01 -5.47c0,-0.81 -2.21,-1.63 -2.98,-1.88l-0.01 0.29z"/>
    <path class="fil1" d="M4.5 11l0.64 0.01 0.04 0.93 -0.68 0.01 0 -0.95zm0.71 -1.3l0.66 0 -0.03 0.71 -0.65 -0.01 0.02 -0.7zm-1.39 0l0.67 0.01 0.01 0.68 -0.71 0.01 0.03 -0.7zm1.39 -1.36l0.66 0.01 -0.03 0.69 -0.65 0 0.02 -0.7zm-1.41 0l0.7 0.03 0 0.66 -0.71 0.01 0.01 -0.7zm-0.93 4.43l3.76 0.03 0 -5.21 -3.75 0 -0.01 5.18z"/>
    <path class="fil1" d="M7.69 5.72l0.78 -0.01 0 0.81 -0.77 -0.02 -0.01 -0.78zm-1.45 -0.01l0.78 0 0 0.81 -0.77 -0.02 -0.01 -0.79zm1.46 -1.47l0.76 -0.02 0.01 0.79 -0.77 -0.02 0 -0.75zm-1.45 -0.01l0.76 0 0 0.78 -0.76 -0.01 0 -0.77zm-1 -0.99l0.07 3.84c0.37,-0.06 1.35,0.01 1.78,0.02l0.06 1.16 2.11 -1.08 0.02 -4.33 -4.03 0 -0.01 0.39z"/>
    <polygon class="fil2" points="10.83,8.63 11.95,8.63 11.96,7.64 10.85,7.65 "/>
    <polygon class="fil2" points="10.84,11.94 11.93,11.95 11.96,11 10.82,11.01 "/>
    <polygon class="fil2" points="9.33,10.28 10.45,10.27 10.46,9.34 9.35,9.31 "/>
    <polygon class="fil2" points="10.83,10.25 11.93,10.28 11.95,9.31 10.83,9.33 "/>
    <polygon class="fil2" points="7.85,10.27 8.95,10.27 8.95,9.36 7.86,9.32 "/>
    <polygon class="fil2" points="7.84,11.93 8.94,11.94 8.95,11.01 7.87,11 "/>
    <polygon class="fil2" points="4.5,11.95 5.18,11.94 5.14,11.01 4.5,11 "/>
    <polygon class="fil2" points="6.25,6.5 7.02,6.52 7.02,5.71 6.24,5.71 "/>
    <polygon class="fil2" points="7.7,6.5 8.47,6.52 8.47,5.71 7.69,5.72 "/>
    <polygon class="fil2" points="7.7,4.99 8.47,5.01 8.46,4.22 7.7,4.24 "/>
    <polygon class="fil2" points="6.25,5 7.01,5.01 7.01,4.23 6.25,4.23 "/>
    <polygon class="fil2" points="3.79,10.4 4.5,10.39 4.49,9.71 3.82,9.7 "/>
    <polygon class="fil2" points="3.79,9.04 4.5,9.03 4.5,8.37 3.8,8.34 "/>
    <polygon class="fil2" points="5.19,10.4 5.84,10.41 5.87,9.7 5.21,9.7 "/>
    <polygon class="fil2" points="5.19,9.04 5.84,9.04 5.87,8.35 5.21,8.34 "/>
   </g>
   <rect class="fil3" width="15.63" height="15.63"/>
  </g>
 </g>
</svg>
