<?xml version="1.0" encoding="UTF-8"?>
<!DOCTYPE svg PUBLIC "-//W3C//DTD SVG 1.1//EN" "http://www.w3.org/Graphics/SVG/1.1/DTD/svg11.dtd">
<!-- Creator: CorelDRAW 2017 -->
<svg xmlns="http://www.w3.org/2000/svg" xml:space="preserve" width="206px" height="206px" version="1.1" style="shape-rendering:geometricPrecision; text-rendering:geometricPrecision; image-rendering:optimizeQuality; fill-rule:evenodd; clip-rule:evenodd"
viewBox="0 0 12.93 12.93"
 xmlns:xlink="http://www.w3.org/1999/xlink">
 <defs>
  <style type="text/css">
   <![CDATA[
    .fil2 {fill:none}
    .fil0 {fill:#2B79C3}
    .fil1 {fill:#3A4652}
   ]]>
  </style>
 </defs>
 <g id="Слой_x0020_1">
  <metadata id="CorelCorpID_0Corel-Layer"/>
  <g id="_2027234932080">
   <g>
    <path class="fil0" d="M2.24 4.93c0.14,0.01 0.47,-0.36 1.1,-0.37 0.95,-0.02 0.93,0.27 1.12,0.4 0.39,-0.19 0.24,-0.37 0.94,-0.4 0.38,-0.01 0.77,0 1.06,0.23 0.06,0.46 -0.11,1.23 0.11,1.58 0.42,-0.14 0.1,-0.65 0.22,-1.58 0.31,-0.23 0.73,-0.25 1.12,-0.23 0.6,0.03 0.49,0.15 0.88,0.39 0.26,-0.17 0.05,-0.19 0.47,-0.32 1,-0.31 1.67,0.35 1.75,0.31 0.39,-0.43 -1.01,-1.83 -1.39,-2.11 -0.74,-0.54 -1.85,-0.8 -2.8,-0.85l-0.16 -0.34c-0.29,0.13 -0.08,0.1 -0.25,0.33 -0.96,0.06 -2.03,0.32 -2.81,0.89 -0.36,0.27 -1.7,1.61 -1.36,2.07z"/>
    <path class="fil1" d="M9.81 6.49c-0.63,0.01 -0.79,-0.06 -0.86,0.6 -0.03,0.31 -0.04,0.93 0.08,1.21 0.17,0.39 0.26,0.07 0.36,0.39 0.07,0.22 -0.04,1.7 0.17,1.91 0.14,0.09 0.8,0.09 0.93,0.03 0.27,-0.24 0.2,-1.6 0.21,-2.02 0.38,-0.31 0.41,-0.09 0.46,-0.82 0.07,-1.11 -0.04,-1.36 -0.86,-1.29l-0.27 0.36 -0.22 -0.37z"/>
    <path class="fil1" d="M6.14 8.61c0.51,-0.37 0.31,-0.11 0.23,-0.89 -0.04,-0.37 0.13,-0.79 0.06,-1.13 -0.65,-0.36 -0.7,0.08 -0.96,0.27 -0.28,-0.42 -0.36,-0.5 -0.92,-0.29 -0.18,0.27 -0.2,0.84 -0.17,1.17 0.05,0.73 0.07,0.58 0.47,0.87 0.01,0.44 -0.06,1.78 0.21,2.03 0.06,0.02 0.79,0.03 0.87,0 0.31,-0.33 0.19,-1.53 0.21,-2.03z"/>
    <path class="fil1" d="M3.85 8.61c0.5,-0.38 0.36,0.06 0.26,-0.83 -0.06,-0.43 0.07,-0.74 0.07,-1.17 -0.2,-0.13 -0.44,-0.12 -0.71,-0.12l-0.27 0.37 -0.21 -0.38c-0.76,0.03 -0.96,-0.03 -0.87,1.32 0.04,0.65 0.08,0.51 0.46,0.81 0.01,0.42 -0.08,1.71 0.15,1.99 0.14,0.09 0.84,0.09 0.97,0.01 0.19,-0.27 0.13,-1.59 0.15,-2z"/>
    <path class="fil1" d="M8.4 8.61c0.57,-0.41 0.31,-0.12 0.25,-0.87 -0.03,-0.42 0.12,-0.85 0.07,-1.18 -0.79,-0.18 -0.58,-0.14 -0.93,0.29 -0.23,-0.17 -0.14,-0.3 -0.39,-0.35 -0.19,-0.05 -0.49,0.02 -0.62,0.11 -0.13,0.28 -0.13,0.85 -0.11,1.17 0.06,0.88 0.07,0.5 0.46,0.83 0.01,0.42 -0.05,1.75 0.15,2.01 0.14,0.07 0.87,0.07 1,-0.02 0.16,-0.3 0.1,-1.56 0.12,-1.99z"/>
    <path class="fil1" d="M7.31 5.84c0.13,0.75 0.96,0.53 0.93,-0.17 -0.04,-0.72 -1.05,-0.56 -0.93,0.17z"/>
    <path class="fil1" d="M5.04 5.77c0.05,0.78 0.91,0.65 0.92,-0.04 0.01,-0.68 -0.97,-0.75 -0.92,0.04z"/>
    <path class="fil1" d="M3.68 5.85c0.2,-0.63 -0.8,-0.93 -0.92,-0.24 -0.1,0.59 0.64,1.1 0.92,0.24z"/>
    <path class="fil1" d="M9.61 5.85c0.11,0.73 0.94,0.54 0.89,-0.18 -0.05,-0.67 -1.02,-0.63 -0.89,0.18z"/>
   </g>
   <rect class="fil2" width="12.93" height="12.93"/>
  </g>
 </g>
</svg>
