<?xml version="1.0" encoding="UTF-8"?>
<!DOCTYPE svg PUBLIC "-//W3C//DTD SVG 1.1//EN" "http://www.w3.org/Graphics/SVG/1.1/DTD/svg11.dtd">
<!-- Creator: CorelDRAW 2017 -->
<svg xmlns="http://www.w3.org/2000/svg" xml:space="preserve" width="206px" height="206px" version="1.1" style="shape-rendering:geometricPrecision; text-rendering:geometricPrecision; image-rendering:optimizeQuality; fill-rule:evenodd; clip-rule:evenodd"
viewBox="0 0 15.63 15.63"
 xmlns:xlink="http://www.w3.org/1999/xlink">
 <defs>
  <style type="text/css">
   <![CDATA[
    .fil3 {fill:none}
    .fil0 {fill:#2B79C3}
    .fil1 {fill:#3A4652}
    .fil2 {fill:white}
   ]]>
  </style>
 </defs>
 <g id="Слой_x0020_1">
  <metadata id="CorelCorpID_0Corel-Layer"/>
  <g id="_2027335146960">
   <g>
    <path class="fil0" d="M10.8 3.37c-1.86,-0.6 -0.51,-0.36 -2.48,-0.61 -0.69,-0.09 -0.01,-0.19 -0.53,-0.43 -0.31,0.19 -0.01,0.13 -0.24,0.41 -3.62,0.07 -5.44,2.97 -5.03,3.58 0.35,-0.06 0.39,-0.48 1.34,-0.49 1.18,-0.01 1.12,0.35 1.28,0.49 0.37,-0.1 0.28,-0.44 1.15,-0.49 0.47,-0.02 0.93,0.01 1.32,0.25 0.19,0.68 -0.16,3.07 0.12,3.5 0.63,-0.02 0.05,-3.04 0.29,-3.47 0.4,-0.31 0.82,-0.3 1.36,-0.27 0.91,0.06 0.65,0.29 1.07,0.49 0.25,-0.22 0.05,-0.23 0.44,-0.4 0.22,-0.09 0.47,-0.09 0.71,-0.08l0.08 0c1.05,-0.05 1.1,0.46 1.47,0.46 0.12,-0.39 -0.28,-1.15 -0.57,-1.39 -0.29,-0.63 -1.13,-1.22 -1.78,-1.55z"/>
    <path class="fil1" d="M9.33 10.59c0.04,0.56 1.06,0.2 1.25,0.86 0.21,0.74 -0.48,0.85 -0.62,0.93 -0.24,0.14 0,0.09 -0.27,0.22 -0.25,-0.12 -0.05,-0.08 -0.22,-0.19 -0.23,-0.15 -0.66,-0.12 -0.71,-0.79 0.75,-0.01 0.32,0.01 0.65,0.24 0.23,0.16 0.49,0.09 0.68,-0.06 -0.15,-0.7 -1.39,-0.08 -1.31,-1.22 0.08,-0.13 0.21,-0.29 0.37,-0.38 0.14,-0.07 0.16,-0.06 0.28,-0.11 0.2,-0.1 0.05,-0.07 0.27,-0.18 0.85,0.41 0.82,0.44 0.86,0.86 -0.67,0 -0.28,-0.03 -0.62,-0.22 -0.22,-0.12 -0.41,-0.13 -0.61,0.04zm-3.66 0c0.01,0.26 -0.11,0.17 0.23,0.3 0.22,0.09 0.85,0.11 1.02,0.57 0.24,0.7 -0.49,0.85 -0.6,0.91 -0.31,0.15 -0.03,0.13 -0.34,0.23 -0.48,-0.43 -0.01,-0.08 -0.53,-0.34 -0.27,-0.14 -0.36,-0.33 -0.39,-0.62 0.79,-0.07 0.37,0.01 0.7,0.23 0.22,0.14 0.54,0.11 0.65,-0.15 -0.2,-0.44 -1.04,-0.23 -1.32,-0.75 -0.22,-0.43 0.3,-0.71 0.58,-0.85l0.39 -0.23c0.33,0.29 0.22,0.13 0.53,0.32 0.23,0.14 0.28,0.3 0.32,0.55 -0.64,0.02 -0.31,0.01 -0.62,-0.19 -0.21,-0.14 -0.38,-0.15 -0.62,0.02zm-1.73 2.65c0.37,0.11 5.35,0.05 6.44,0.05 1.77,0 1.33,0.03 1.25,-0.59 -0.2,-1.76 0.63,-1.93 -1,-3.21 -0.37,-0.29 -0.25,-0.34 -0.78,-0.34 -1.4,-0.03 -1.03,0.49 -2.07,1.15 -0.21,-0.36 -0.79,-0.88 -1.19,-1.08 -0.85,-0.43 -2.49,0.45 -2.57,1.82 -0.02,0.38 -0.03,0.76 -0.01,1.14 0.02,0.47 -0.1,0.81 -0.07,1.06z"/>
    <path class="fil2" d="M5.67 10.59c0.24,-0.17 0.41,-0.16 0.62,-0.02 0.31,0.2 -0.02,0.21 0.62,0.19 -0.04,-0.25 -0.09,-0.41 -0.32,-0.55 -0.31,-0.19 -0.2,-0.03 -0.53,-0.32l-0.39 0.23c-0.28,0.14 -0.8,0.42 -0.58,0.85 0.28,0.52 1.12,0.31 1.32,0.75 -0.11,0.26 -0.43,0.29 -0.65,0.15 -0.33,-0.22 0.09,-0.3 -0.7,-0.23 0.03,0.29 0.12,0.48 0.39,0.62 0.52,0.26 0.05,-0.09 0.53,0.34 0.31,-0.1 0.03,-0.08 0.34,-0.23 0.11,-0.06 0.84,-0.21 0.6,-0.91 -0.17,-0.46 -0.8,-0.48 -1.02,-0.57 -0.34,-0.13 -0.22,-0.04 -0.23,-0.3z"/>
    <path class="fil2" d="M9.33 10.59c0.2,-0.17 0.39,-0.16 0.61,-0.04 0.34,0.19 -0.05,0.22 0.62,0.22 -0.04,-0.42 -0.01,-0.45 -0.86,-0.86 -0.22,0.11 -0.07,0.08 -0.27,0.18 -0.12,0.05 -0.14,0.04 -0.28,0.11 -0.16,0.09 -0.29,0.25 -0.37,0.38 -0.08,1.14 1.16,0.52 1.31,1.22 -0.19,0.15 -0.45,0.22 -0.68,0.06 -0.33,-0.23 0.1,-0.25 -0.65,-0.24 0.05,0.67 0.48,0.64 0.71,0.79 0.17,0.11 -0.03,0.07 0.22,0.19 0.27,-0.13 0.03,-0.08 0.27,-0.22 0.14,-0.08 0.83,-0.19 0.62,-0.93 -0.19,-0.66 -1.21,-0.3 -1.25,-0.86z"/>
    <path class="fil1" d="M6.55 8.81c0.17,-0.57 0.57,-1.06 0.61,-1.22 -0.19,-0.23 -0.27,-0.18 -0.57,-0.2 -0.58,-0.03 -0.22,-0.01 -0.6,-0.15 -0.35,-0.12 -0.83,-0.01 -1.07,0.31 -0.01,0.26 0.39,1.01 0.55,1.26l1.08 0z"/>
    <path class="fil1" d="M9 8.41l0.12 0.4 1.07 0c0.1,-0.22 0.17,-0.44 0.27,-0.65 0.14,-0.3 0.24,-0.31 0.39,-0.53 -0.26,-0.27 -0.42,-0.29 -0.8,-0.22 -0.37,-0.12 -0.34,-0.31 -0.84,-0.21 -1.17,0.25 -0.51,0.81 -0.21,1.21z"/>
   </g>
   <rect class="fil3" width="15.63" height="15.63"/>
  </g>
 </g>
</svg>
