<?xml version="1.0" encoding="UTF-8"?>
<!DOCTYPE svg PUBLIC "-//W3C//DTD SVG 1.1//EN" "http://www.w3.org/Graphics/SVG/1.1/DTD/svg11.dtd">
<!-- Creator: CorelDRAW 2017 -->
<svg xmlns="http://www.w3.org/2000/svg" xml:space="preserve" width="206px" height="206px" version="1.1" style="shape-rendering:geometricPrecision; text-rendering:geometricPrecision; image-rendering:optimizeQuality; fill-rule:evenodd; clip-rule:evenodd"
viewBox="0 0 15.63 15.63"
 xmlns:xlink="http://www.w3.org/1999/xlink">
 <defs>
  <style type="text/css">
   <![CDATA[
    .fil3 {fill:none}
    .fil0 {fill:#2B79C3}
    .fil1 {fill:#3A4652}
    .fil2 {fill:white}
   ]]>
  </style>
 </defs>
 <g id="Слой_x0020_1">
  <metadata id="CorelCorpID_0Corel-Layer"/>
  <g id="_2027322342352">
   <g>
    <path class="fil0" d="M4.39 5.1c-0.26,0.14 -0.35,-0.55 -0.39,-0.71 -0.07,-0.24 -0.26,-0.63 -0.11,-0.85 0.3,-0.06 0.31,0.42 0.39,0.7 0.05,0.19 0.31,0.75 0.11,0.86zm-0.93 -0.69c0.09,0.29 0.32,0.68 -0.07,0.71 -0.13,-0.14 -0.36,-1.07 -0.39,-1.3l-0.77 -0.01c0.01,0.45 -0.07,2.6 0.06,2.84 0.18,0.1 3.52,0.11 3.7,0 0.1,-0.19 0.06,-1.25 0.04,-1.52l-0.95 -0.03c-0.13,-0.24 -0.49,-1.4 -0.32,-1.56 0.26,-0.05 0.27,0.28 0.33,0.53 0.06,0.21 0.15,0.53 0.19,0.75l0.76 0 -0.03 -2.54c-0.39,-0.1 -2,-0.03 -2.52,-0.03 -1.47,0 -1.29,-0.27 -1.26,1.26 1.23,0.03 0.92,-0.2 1.23,0.9z"/>
    <path class="fil1" d="M6.86 3.83l1 -0.01 0.18 1.39 -1 -0.11 -0.18 -1.27zm1.83 -0.06c0.06,-0.31 -0.15,-0.27 -0.4,-0.27 -0.22,0.01 -0.43,0.01 -0.65,0.01 -0.28,0 -1.02,-0.06 -1.24,0.05 -0.08,0.17 -0.08,2.88 -0.01,3.09 0.23,0.12 1.12,0.06 1.43,0.06 1.1,0 1.08,0.1 1.09,-0.38 -0.22,-0.06 -0.23,0.04 -0.3,-0.15 0.18,-0.22 0.23,0.05 0.3,-0.18 -0.18,-0.15 -0.17,0.05 -0.3,-0.14 0.06,-0.19 -0.01,-0.05 0.11,-0.11l0.15 -0.06c0.01,-0.01 0.03,0 0.04,-0.01 -0.01,-0.46 -0.1,-0.38 -0.54,-0.4l-0.18 -1.45 0.5 -0.06z"/>
    <path class="fil1" d="M12.59 10.65c0.26,-0.13 0.48,0.11 0.29,0.29 -0.16,0.16 -0.45,0.01 -0.29,-0.29zm-1.01 -2.35c0.13,0.18 0.68,1.68 0.81,2 0.12,0.33 -0.15,0.72 -0.27,1.04 -0.06,0.16 -0.13,0.33 -0.19,0.49 -0.19,0.47 -0.25,0.09 -0.32,0.39 0.49,0.35 2.42,-0.36 1.62,-1.43 -0.2,-0.27 -0.27,-0.16 -0.37,-0.51 -0.11,-0.41 -1,-3.2 -1.07,-3.27 -0.35,-0.33 -0.69,0.55 -0.81,0.79 -0.2,0.37 -0.44,0.75 -0.64,1.11 -0.15,0.27 0.21,0.97 0.34,1.29l0.9 -1.9z"/>
    <path class="fil1" d="M9.14 9.42l0.61 0.01c0.1,0.24 0.55,1.33 0.48,1.49 -0.15,0.1 -0.53,0.08 -0.73,0.05 -0.19,-0.04 -0.27,-0.19 -0.43,-0.31l0.07 -1.24zm-0.69 1.05c-0.18,0.08 -1.17,0.07 -1.4,0.01 0.03,-0.26 0.17,-0.18 0.74,-0.18 0.24,0 0.7,-0.1 0.66,0.17zm1.84 1.01c0.33,-0.85 0.48,-0.12 -0.05,-1.66 -0.09,-0.25 -0.16,-0.71 -0.46,-0.72 -0.22,-0.02 -0.94,-0.03 -1.13,0.03l-0.14 0.81c-0.32,0.01 -1.45,-0.08 -1.64,0.11 -0.22,0.2 -0.23,1.21 0.05,1.38 0.2,0.13 2.97,0.09 3.37,0.05z"/>
    <path class="fil1" d="M10.53 12.12c0.71,-0.2 0.84,0.74 0.33,0.9 -0.69,0.23 -0.94,-0.73 -0.33,-0.9zm-3.11 -0.01c0.71,-0.17 0.81,0.81 0.27,0.93 -0.69,0.14 -0.88,-0.79 -0.27,-0.93zm0.79 0.94c0.22,-0.46 0.18,-0.51 0.01,-0.96l1.77 0c-0.16,0.49 -0.18,0.47 0.01,0.97l-1.79 -0.01zm-1.47 -0.37c0.12,0.98 1.73,0.69 2.48,0.69 0.76,0 2.41,0.29 2.26,-0.92 -0.13,-0.97 -1.74,-0.68 -2.49,-0.68 -0.7,0 -2.4,-0.29 -2.25,0.91z"/>
    <path class="fil1" d="M4.41 6.96c0.27,0.34 0.39,0.35 0.43,0.88l1.47 0c0.07,-0.71 0.21,-0.46 0.43,-0.89l-2.33 0.01z"/>
    <path class="fil2" d="M9.07 10.66c0.16,0.12 0.24,0.27 0.43,0.31 0.2,0.03 0.58,0.05 0.73,-0.05 0.07,-0.16 -0.38,-1.25 -0.48,-1.49l-0.61 -0.01 -0.07 1.24z"/>
    <path class="fil1" d="M7.26 7.39c0.56,-0.21 0.87,0.7 0.29,0.92 -0.57,0.22 -1.02,-0.66 -0.29,-0.92zm0.91 0.64c0.27,-1.01 -1.35,-1.43 -1.58,-0.36 -0.21,1 1.29,1.44 1.58,0.36z"/>
    <polygon class="fil2" points="8.04,5.21 7.86,3.82 6.86,3.83 7.04,5.1 "/>
    <path class="fil1" d="M3.57 7.41c0.6,-0.3 0.97,0.61 0.42,0.89 -0.55,0.27 -1.05,-0.58 -0.42,-0.89zm0.98 0.62c0.26,-1.13 -1.4,-1.33 -1.57,-0.37 -0.19,1.08 1.33,1.4 1.57,0.37z"/>
    <path class="fil2" d="M9.28 12.86c-0.59,0.08 -0.61,-0.43 -0.3,-0.57 0.15,-0.07 0.34,-0.02 0.41,0.13 0.1,0.23 -0.01,0.29 -0.11,0.44zm-1.07 0.19l1.79 0.01c-0.19,-0.5 -0.17,-0.48 -0.01,-0.97l-1.77 0c0.17,0.45 0.21,0.5 -0.01,0.96z"/>
    <path class="fil1" d="M2.66 7.83c0.07,-0.12 0.09,-0.35 0.18,-0.5 0.09,-0.15 0.21,-0.24 0.3,-0.38 -0.83,0 -0.99,-0.11 -0.91,0.67 0.03,0.28 0.17,0.22 0.43,0.21z"/>
    <path class="fil1" d="M8.01 6.96c0.12,0.16 0.2,0.18 0.31,0.39 0.1,0.19 0.08,0.34 0.15,0.48 0.25,0.02 0.42,0.07 0.44,-0.22 0.02,-0.2 0.02,-0.43 -0.05,-0.62 -0.23,-0.09 -0.59,-0.05 -0.85,-0.03z"/>
    <path class="fil2" d="M3.89 3.54c-0.15,0.22 0.04,0.61 0.11,0.85 0.04,0.16 0.13,0.85 0.39,0.71 0.2,-0.11 -0.06,-0.67 -0.11,-0.86 -0.08,-0.28 -0.09,-0.76 -0.39,-0.7z"/>
    <path class="fil2" d="M3.68 7.56c0.36,-0.16 0.59,0.46 0.19,0.58 -0.33,0.09 -0.62,-0.39 -0.19,-0.58zm-0.11 -0.15c-0.63,0.31 -0.13,1.16 0.42,0.89 0.55,-0.28 0.18,-1.19 -0.42,-0.89z"/>
    <path class="fil2" d="M7.27 7.55c0.36,-0.17 0.6,0.47 0.2,0.59 -0.32,0.1 -0.63,-0.37 -0.2,-0.59zm-0.01 -0.16c-0.73,0.26 -0.28,1.14 0.29,0.92 0.58,-0.22 0.27,-1.13 -0.29,-0.92z"/>
    <path class="fil2" d="M7.26 12.74c-0.09,-0.52 0.38,-0.6 0.55,-0.35 0.19,0.3 -0.13,0.7 -0.55,0.35zm0.16 -0.63c-0.61,0.14 -0.42,1.07 0.27,0.93 0.54,-0.12 0.44,-1.1 -0.27,-0.93z"/>
    <path class="fil2" d="M10.88 12.81c-0.44,0.26 -0.69,-0.27 -0.39,-0.48 0.34,-0.25 0.66,0.2 0.39,0.48zm-0.35 -0.69c-0.61,0.17 -0.36,1.13 0.33,0.9 0.51,-0.16 0.38,-1.1 -0.33,-0.9z"/>
    <path class="fil1" d="M9.28 12.86c0.1,-0.15 0.21,-0.21 0.11,-0.44 -0.07,-0.15 -0.26,-0.2 -0.41,-0.13 -0.31,0.14 -0.29,0.65 0.3,0.57z"/>
    <path class="fil1" d="M10.88 12.81c0.27,-0.28 -0.05,-0.73 -0.39,-0.48 -0.3,0.21 -0.05,0.74 0.39,0.48z"/>
    <path class="fil1" d="M7.26 12.74c0.42,0.35 0.74,-0.05 0.55,-0.35 -0.17,-0.25 -0.64,-0.17 -0.55,0.35z"/>
    <path class="fil1" d="M7.27 7.55c-0.43,0.22 -0.12,0.69 0.2,0.59 0.4,-0.12 0.16,-0.76 -0.2,-0.59z"/>
    <path class="fil2" d="M7.05 10.48c0.23,0.06 1.22,0.07 1.4,-0.01 0.04,-0.27 -0.42,-0.17 -0.66,-0.17 -0.57,0 -0.71,-0.08 -0.74,0.18z"/>
    <path class="fil1" d="M3.68 7.56c-0.43,0.19 -0.14,0.67 0.19,0.58 0.4,-0.12 0.17,-0.74 -0.19,-0.58z"/>
    <path class="fil2" d="M12.59 10.65c-0.16,0.3 0.13,0.45 0.29,0.29 0.19,-0.18 -0.03,-0.42 -0.29,-0.29z"/>
   </g>
   <rect class="fil3" width="15.63" height="15.63"/>
  </g>
 </g>
</svg>
