<?xml version="1.0" encoding="UTF-8"?>
<!DOCTYPE svg PUBLIC "-//W3C//DTD SVG 1.1//EN" "http://www.w3.org/Graphics/SVG/1.1/DTD/svg11.dtd">
<!-- Creator: CorelDRAW 2017 -->
<svg xmlns="http://www.w3.org/2000/svg" xml:space="preserve" width="206px" height="206px" version="1.1" style="shape-rendering:geometricPrecision; text-rendering:geometricPrecision; image-rendering:optimizeQuality; fill-rule:evenodd; clip-rule:evenodd"
viewBox="0 0 15.63 15.63"
 xmlns:xlink="http://www.w3.org/1999/xlink">
 <defs>
  <style type="text/css">
   <![CDATA[
    .fil5 {fill:none}
    .fil0 {fill:#2B79C3}
    .fil1 {fill:#3A4652}
    .fil4 {fill:#545B63}
    .fil3 {fill:#6B747C}
    .fil2 {fill:white}
   ]]>
  </style>
 </defs>
 <g id="Слой_x0020_1">
  <metadata id="CorelCorpID_0Corel-Layer"/>
  <g id="_2027322323952">
   <g>
    <path class="fil0" d="M3.43 4.8c0.01,-0.61 -0.14,-1.57 0.74,-1.56 0.83,0.01 0.72,0.97 0.74,1.56l-1.48 0zm-1.05 2.7c0.27,0.06 3.3,0.09 3.45,0.03 0.31,-0.12 0.16,-1.22 0.16,-1.59 0,-0.19 0.03,-0.67 0,-0.83 -0.07,-0.49 -0.14,-0.17 -0.42,-0.38 0.03,-1.01 -0.1,-2.2 -1.39,-2.2 -1.31,0.01 -1.43,1.09 -1.44,2.13 -0.23,0.5 -0.42,-0.33 -0.42,1.28 0,0.46 -0.06,1.15 0.06,1.56z"/>
    <path class="fil1" d="M13.08 6.74c-0.44,-0.57 -2.4,-0.34 -3.14,-0.34 -1.17,0 -2.33,0.01 -3.5,0l0.01 0.52c0.81,0 5.81,-0.11 6.14,0.08 0.35,0.29 0.2,5.29 0.1,5.42 -0.23,0.26 -8.06,0.19 -8.2,0.04 -0.19,-0.38 -0.09,-3.76 -0.09,-4.47l-0.52 0.01c-0.02,1.18 0,2.37 0,3.55 -0.01,1.65 0.44,1.57 1.97,1.51 1.1,-0.04 6.33,0.15 6.9,-0.06 0.8,-0.29 0.53,-2.24 0.53,-2.96 0,-0.7 0.17,-2.82 -0.2,-3.3z"/>
    <path class="fil1" d="M8.89 9.79c0.46,0.09 2.18,0.07 2.72,0.05 0.61,-0.02 0.43,-0.35 0.43,-0.94 0,-0.37 0.06,-0.96 -0.06,-1.29 -0.25,-0.12 -2.74,-0.13 -3.03,-0.01 -0.19,0.3 -0.15,1.8 -0.06,2.19z"/>
    <path class="fil2" d="M3.43 4.8l1.48 0c-0.02,-0.59 0.09,-1.55 -0.74,-1.56 -0.88,-0.01 -0.73,0.95 -0.74,1.56z"/>
    <path class="fil1" d="M5.13 11.68c-0.01,-0.01 -0.04,0.01 -0.05,0.02 0.02,0.44 0.2,0.31 0.69,0.3 0.64,-0.02 2.43,0.09 2.71,-0.07l0 -0.29 -2.64 -0.03c-0.13,0 -0.33,0 -0.45,0.02l-0.26 0.05z"/>
    <path class="fil1" d="M5.92 9.02c-0.66,-0.01 -0.56,0 -0.64,0.19 0.16,0.23 -0.22,0.12 0.33,0.18l1.98 -0.01c0.65,0.01 0.56,0.01 0.65,-0.18 -0.12,-0.24 0.21,-0.13 -0.34,-0.18l-1.98 0z"/>
    <path class="fil1" d="M8.24 8.02c-0.39,-0.06 -2.63,-0.07 -2.96,0.01l0.01 0.31 2.94 -0.02 0.01 -0.3z"/>
    <polygon class="fil3" points="6.75,11.11 8.25,11.1 8.25,10.49 6.79,10.51 "/>
    <polygon class="fil1" points="8.87,11.09 10.3,11.09 10.29,10.51 8.85,10.51 "/>
    <path class="fil4" d="M5.05 11.06c0.29,0.09 0.91,0.05 1.23,0.02l-0.01 -0.58 -1.22 0.03 0 0.53z"/>
    <polygon class="fil1" points="11,11.11 12.04,11.08 12.03,10.51 11.01,10.51 "/>
    <polygon class="fil1" points="11.01,12 12.03,11.97 12.05,11.62 10.99,11.62 "/>
   </g>
   <rect class="fil5" width="15.63" height="15.63"/>
  </g>
 </g>
</svg>
