<?xml version="1.0" encoding="UTF-8"?>
<!DOCTYPE svg PUBLIC "-//W3C//DTD SVG 1.1//EN" "http://www.w3.org/Graphics/SVG/1.1/DTD/svg11.dtd">
<!-- Creator: CorelDRAW 2017 -->
<svg xmlns="http://www.w3.org/2000/svg" xml:space="preserve" width="206px" height="206px" version="1.1" style="shape-rendering:geometricPrecision; text-rendering:geometricPrecision; image-rendering:optimizeQuality; fill-rule:evenodd; clip-rule:evenodd"
viewBox="0 0 21.84 21.84"
 xmlns:xlink="http://www.w3.org/1999/xlink">
 <defs>
  <style type="text/css">
   <![CDATA[
    .fil2 {fill:none}
    .fil1 {fill:#2B79C3}
    .fil0 {fill:#3A4652}
   ]]>
  </style>
 </defs>
 <g id="Слой_x0020_1">
  <metadata id="CorelCorpID_0Corel-Layer"/>
  <g id="_2027235065408">
   <g>
    <path class="fil0" d="M8.16 9.56c1.63,1.14 1.16,1.52 3.22,-0.01 0.61,-0.46 0.84,-1.26 0.01,-1.46 -0.72,-0.17 -1.04,0.6 -1.67,0.8 -0.92,-0.4 -0.92,-1.82 -2.72,-1.4l-0.72 0.99 -0.64 -1.03 -1.85 0.21c-0.46,0.51 -0.58,2.34 -0.51,3.05 0.28,2.51 0.58,1.83 1.27,2.32 0.19,2.85 -0.45,6.23 1.44,5.41 0.74,-0.31 0.91,0.53 1.64,-0.04 0.52,-0.41 0.35,-3.47 0.37,-4.27 0.03,-1.53 0.11,-3.05 0.16,-4.57z"/>
    <path class="fil0" d="M14.5 9.5c1.09,0.02 2.68,0.35 3.23,-0.72 -0.72,-0.02 -3.49,-0.16 -3.91,0.15 -0.21,0.39 -0.21,3.66 0.02,4.03 0.36,0.18 3.83,0.19 4.11,-0.01 0.25,-0.5 0.13,-1.53 0.11,-2.11 -0.83,0.39 -0.7,0.7 -0.72,1.5l-2.89 0 0.05 -2.84z"/>
    <path class="fil0" d="M14.48 15c1.07,0.03 2.74,0.34 3.26,-0.73 -0.7,-0.01 -3.52,-0.15 -3.91,0.17 -0.22,0.44 -0.22,3.65 0.02,4.02 0.37,0.19 3.77,0.19 4.1,-0.01 0.25,-0.47 0.13,-1.55 0.1,-2.12l-0.7 0.53 0 1 -2.9 0 0.03 -2.86z"/>
    <path class="fil0" d="M14.46 3.95c0.99,0.01 2.81,0.38 3.27,-0.67 -0.71,-0.02 -3.51,-0.15 -3.89,0.15 -0.23,0.39 -0.22,3.65 0,4.03 0.38,0.19 3.79,0.19 4.11,-0.02 0.25,-0.48 0.12,-1.54 0.12,-2.11 -0.83,0.41 -0.72,0.67 -0.72,1.51l-2.89 0 0 -2.89z"/>
    <path class="fil0" d="M5.09 5.66c0.27,2.01 2.63,1.43 2.51,-0.42 -0.12,-1.73 -2.79,-1.75 -2.51,0.42z"/>
    <path class="fil1" d="M15.96 10.95c-0.23,-0.49 -0.23,-1.3 -0.8,-1.06 -0.47,0.19 -0.02,0.96 0.1,1.33 0.17,0.51 0.27,1.09 0.9,0.57l2.08 -1.74c0.57,-0.47 0.33,-1 -0.17,-0.81 -0.45,0.17 -1.58,1.46 -2.11,1.71z"/>
    <path class="fil1" d="M15.96 16.45c-0.23,-0.48 -0.23,-1.29 -0.8,-1.05 -0.46,0.19 -0.02,0.95 0.1,1.33 0.49,1.52 1.12,0.32 2.97,-1.19 0.6,-0.49 0.3,-0.99 -0.17,-0.81 -0.39,0.16 -1.63,1.51 -2.1,1.72z"/>
    <path class="fil1" d="M15.04 4.41c-0.17,0.36 0.25,2.31 0.94,2.01 0.17,-0.07 1.57,-1.29 1.79,-1.49 0.27,-0.25 0.8,-0.55 0.8,-0.88 0.01,-0.54 -0.5,-0.36 -0.81,-0.1 -0.39,0.33 -1.43,1.31 -1.83,1.49 -0.21,-0.65 -0.18,-1.24 -0.89,-1.03z"/>
   </g>
   <rect class="fil2" width="21.84" height="21.84"/>
  </g>
 </g>
</svg>
