<?xml version="1.0" encoding="UTF-8"?>
<!DOCTYPE svg PUBLIC "-//W3C//DTD SVG 1.1//EN" "http://www.w3.org/Graphics/SVG/1.1/DTD/svg11.dtd">
<!-- Creator: CorelDRAW 2017 -->
<svg xmlns="http://www.w3.org/2000/svg" xml:space="preserve" width="206px" height="206px" version="1.1" style="shape-rendering:geometricPrecision; text-rendering:geometricPrecision; image-rendering:optimizeQuality; fill-rule:evenodd; clip-rule:evenodd"
viewBox="0 0 15.63 15.63"
 xmlns:xlink="http://www.w3.org/1999/xlink">
 <defs>
  <style type="text/css">
   <![CDATA[
    .fil3 {fill:none}
    .fil0 {fill:#2B79C3}
    .fil1 {fill:#3A4652}
    .fil2 {fill:white}
   ]]>
  </style>
 </defs>
 <g id="Слой_x0020_1">
  <metadata id="CorelCorpID_0Corel-Layer"/>
  <g id="_2027332991680">
   <g>
    <path class="fil0" d="M2.44 6.27c0.57,0.16 0.14,-0.4 1.39,-0.44 1.15,-0.03 1.17,0.38 1.37,0.49 0.35,-0.14 0.05,-0.2 0.53,-0.38 1.22,-0.44 2.02,0.34 2.12,0.38 0.27,-0.18 0.03,-0.22 0.53,-0.39 1.24,-0.41 1.81,0.26 2.05,0.39 0.24,-0.11 0.23,-0.55 1.44,-0.49 1.16,0.06 0.85,0.63 1.3,0.43 0.24,-0.71 -1.35,-2.25 -1.96,-2.63 -0.51,-0.32 -1.05,-0.55 -1.65,-0.7 -0.34,-0.08 -0.6,-0.14 -0.95,-0.16 -1.03,-0.06 -0.34,-0.06 -0.76,-0.43 -0.4,0.14 -0.06,0.09 -0.3,0.4 -1.27,0.04 -2.33,0.35 -3.36,1.05 -0.6,0.4 -1.82,1.74 -1.75,2.48z"/>
    <path class="fil1" d="M8.03 11.75l0 -1.15c1.12,0.15 1.03,1.18 0,1.15zm-0.44 -2.71c-0.84,-0.08 -1.03,-0.91 0,-1.02l0 1.02zm0.43 -0.98c0.61,-0.02 0.59,0.32 0.82,0.68l1.22 -0.01c-0.04,-1.79 -1.62,-1.62 -1.88,-1.71 -0.35,-0.13 -0.05,-0.36 -0.45,-0.23 -0.34,0.12 0.05,-0.04 -0.12,0.1 -0.38,0.32 -0.79,0.17 -1.25,0.43 -0.73,0.41 -1.09,1.28 -0.69,2.09 0.41,0.84 1.25,0.8 1.92,1.09l0.01 1.24c-0.78,-0.08 -0.54,-0.45 -0.81,-0.88l-1.36 0c0.01,1.32 0.92,1.89 2.12,2.05 0.12,0.31 -0.11,0.43 0.29,0.37 0.35,-0.05 0.08,-0.02 0.24,-0.37 1.13,-0.13 2.19,-0.58 2.15,-1.9 -0.04,-1.48 -1.28,-1.42 -2.2,-1.84l-0.01 -1.11z"/>
    <path class="fil2" d="M8.03 11.75c1.03,0.03 1.12,-1 0,-1.15l0 1.15z"/>
    <path class="fil2" d="M7.59 9.04l0 -1.02c-1.03,0.11 -0.84,0.94 0,1.02z"/>
   </g>
   <rect class="fil3" width="15.63" height="15.63"/>
  </g>
 </g>
</svg>
