<?xml version="1.0" encoding="UTF-8"?>
<!DOCTYPE svg PUBLIC "-//W3C//DTD SVG 1.1//EN" "http://www.w3.org/Graphics/SVG/1.1/DTD/svg11.dtd">
<!-- Creator: CorelDRAW 2017 -->
<svg xmlns="http://www.w3.org/2000/svg" xml:space="preserve" width="206px" height="206px" version="1.1" style="shape-rendering:geometricPrecision; text-rendering:geometricPrecision; image-rendering:optimizeQuality; fill-rule:evenodd; clip-rule:evenodd"
viewBox="0 0 23.06 23.06"
 xmlns:xlink="http://www.w3.org/1999/xlink">
 <defs>
  <style type="text/css">
   <![CDATA[
    .fil2 {fill:none}
    .fil1 {fill:#2B79C3}
    .fil0 {fill:#3A4652}
   ]]>
  </style>
 </defs>
 <g id="Слой_x0020_1">
  <metadata id="CorelCorpID_0Corel-Layer"/>
  <g id="_2027332999712">
   <g>
    <path class="fil0" d="M14.75 16.29c4.67,-0.01 4.05,0.63 4.25,-2.9 0.04,-0.75 0.59,-2.87 -0.89,-2.27 -0.68,0.27 -0.91,1.73 -1.26,2.19 -1.02,0.3 -2.38,-0.08 -2.26,1.18 -1.56,-0.04 -1.47,0.78 -1.64,2.08 -0.1,0.79 -0.72,2.43 -0.07,3 0.85,0.27 0.98,-0.7 1.18,-1.31 0.19,-0.61 0.57,-1.38 0.69,-1.97z"/>
    <path class="fil0" d="M8.54 14.25c-0.12,-0.75 -0.34,-0.61 -0.96,-0.69 -0.44,-0.05 -1.05,-0.13 -1.41,-0.27 -0.38,-0.76 -0.74,-2.87 -2.06,-2.07 -0.24,0.43 0.05,4.56 0.31,4.94 0.7,0.33 2.96,0.06 3.88,0.12 0.42,0.59 0.81,3.44 1.66,3.36 1.01,-0.09 0.1,-3.3 0.05,-4.02 -0.09,-0.41 -0.14,-0.78 -0.5,-0.98 -0.54,-0.31 -0.92,0.09 -0.97,-0.39z"/>
    <path class="fil1" d="M10.35 5.04c1.17,0.07 2.02,0.99 1.9,2.15l-1.81 0c-0.21,-0.5 -0.13,-1.63 -0.09,-2.15zm0 -0.91c0.38,-0.33 3.26,-0.17 4,-0.16 0.97,0.02 0.72,0.34 0.72,1.27 -0.01,0.47 0.1,1.49 -0.1,1.92l-1.19 0.09c-0.18,0.32 -0.13,0.17 0,0.57 -0.03,-0.01 -0.28,-0.12 -0.3,-0.13 -0.24,-0.06 0.01,-0.06 -0.17,0.01 -0.1,0.58 0.03,0.45 0.52,0.84 0.36,0.29 0.46,0.49 0.94,0.48 -0.01,-0.59 -0.28,-0.81 -0.43,-1.3 0.67,0 0.71,0.1 1.24,-0.42l-0.07 -3.45c-0.58,-0.62 -2.03,-0.37 -2.85,-0.37 -0.8,0 -2.19,-0.3 -2.73,0.37 -0.2,0.45 -0.2,3 0,3.46 0.53,0.63 1.36,0.39 2.19,0.42 -0.6,1.81 -2.33,1.06 -3.74,1.17 0.65,-1.2 -0.33,-0.79 -0.12,-2.15 0.17,-1.21 0.97,-0.97 0.96,-2 -1.66,0.61 -1.6,2.19 -1.13,3.62 -0.27,0.47 -0.57,0.58 -0.57,1.13 0.76,0.13 1.06,-0.18 1.66,-0.12 0.34,0.03 2.49,0.75 3.35,-1.26 0.55,-1.29 0.14,-2.75 -1.15,-3.39 -0.59,-0.29 -1.02,-0.02 -1.03,-0.6z"/>
    <polygon class="fil0" points="11.14,13.95 11.16,19.61 11.91,19.64 11.93,14.01 14.06,13.91 14.03,13.22 9.03,13.25 9.06,13.99 "/>
    <path class="fil0" d="M17.15 9.37c0.44,1.87 2.63,1.25 2.44,-0.65 -0.17,-1.72 -2.94,-1.42 -2.44,0.65z"/>
    <path class="fil0" d="M5.9 9.37c0.51,-1.89 -2.06,-2.49 -2.41,-0.76 -0.34,1.69 1.84,2.88 2.41,0.76z"/>
   </g>
   <rect class="fil2" width="23.06" height="23.06"/>
  </g>
 </g>
</svg>
