<?xml version="1.0" encoding="UTF-8"?>
<!DOCTYPE svg PUBLIC "-//W3C//DTD SVG 1.1//EN" "http://www.w3.org/Graphics/SVG/1.1/DTD/svg11.dtd">
<!-- Creator: CorelDRAW 2017 -->
<svg xmlns="http://www.w3.org/2000/svg" xml:space="preserve" width="206px" height="206px" version="1.1" style="shape-rendering:geometricPrecision; text-rendering:geometricPrecision; image-rendering:optimizeQuality; fill-rule:evenodd; clip-rule:evenodd"
viewBox="0 0 15.63 15.63"
 xmlns:xlink="http://www.w3.org/1999/xlink">
 <defs>
  <style type="text/css">
   <![CDATA[
    .fil3 {fill:none}
    .fil1 {fill:#2B79C3}
    .fil0 {fill:#3A4652}
    .fil2 {fill:white}
   ]]>
  </style>
 </defs>
 <g id="Слой_x0020_1">
  <metadata id="CorelCorpID_0Corel-Layer"/>
  <g id="_2027332969632">
   <g>
    <path class="fil0" d="M6.26 4.57c0,-0.54 -0.13,-0.69 0.46,-0.7 0.36,-0.01 0.77,0.01 1.14,0.01 1.7,0 1.52,-0.14 1.52,0.69l-3.12 0zm-1.43 0c-0.82,0.02 -1.89,-0.22 -2.32,0.48 -0.22,0.36 -0.26,2.17 -0.18,2.62 0.12,0.71 3.46,1.35 4.17,1.4 0.01,-0.02 0.02,-0.05 0.02,-0.06 0.21,-0.68 0.03,-1.12 1.26,-1.13 0.97,0 1.29,0.22 1.28,1.2 1.31,-0.11 3.13,-0.53 4.23,-1.21 0.07,-0.55 0.11,-2.32 -0.12,-2.78 -0.37,-0.73 -1.59,-0.52 -2.39,-0.51l-0.16 -0.51 -0.54 -0.03c-0.17,-1.14 -1.38,-0.86 -2.29,-0.86 -0.91,0 -2.08,-0.28 -2.19,0.87 -0.75,-0.01 -0.49,0.09 -0.77,0.52z"/>
    <path class="fil0" d="M2.67 8.63c0,0.93 -0.39,3.49 0.75,3.79 0.41,0.1 8.59,0.08 8.87,-0.02 1.06,-0.35 0.68,-2.86 0.68,-3.77 -0.95,0.19 -1.91,0.86 -3.88,0.96 -0.14,0.98 -0.29,1.1 -1.31,1.1 -0.93,-0.01 -1.11,-0.17 -1.22,-1.1 -2.03,-0.11 -2.62,-0.67 -3.89,-0.96z"/>
    <path class="fil1" d="M8.5 8.47c-0.33,-0.09 -0.72,-0.13 -1.08,-0.08 -0.45,0.08 -0.32,0.48 -0.32,0.87 -0.01,0.43 -0.15,0.84 0.31,0.91 0.31,0.04 0.83,0.04 1.1,-0.11 0.09,-0.43 0.08,-1.16 -0.01,-1.59z"/>
    <path class="fil2" d="M6.26 4.57l3.12 0c0,-0.83 0.18,-0.69 -1.52,-0.69 -0.37,0 -0.78,-0.02 -1.14,-0.01 -0.59,0.01 -0.46,0.16 -0.46,0.7z"/>
   </g>
   <rect class="fil3" width="15.63" height="15.63"/>
  </g>
 </g>
</svg>
