<?xml version="1.0" encoding="UTF-8" standalone="no"?>
<!-- Created with Inkscape (http://www.inkscape.org/) -->

<svg
   xmlns:dc="http://purl.org/dc/elements/1.1/"
   xmlns:cc="http://creativecommons.org/ns#"
   xmlns:rdf="http://www.w3.org/1999/02/22-rdf-syntax-ns#"
   xmlns:svg="http://www.w3.org/2000/svg"
   xmlns="http://www.w3.org/2000/svg"
   xmlns:sodipodi="http://sodipodi.sourceforge.net/DTD/sodipodi-0.dtd"
   xmlns:inkscape="http://www.inkscape.org/namespaces/inkscape"
   width="48.373768mm"
   height="59.116135mm"
   viewBox="0 0 48.373768 59.116135"
   version="1.1"
   id="svg8"
   inkscape:version="0.92.1 r15371"
   sodipodi:docname="logo-group-stk-only.svg">
  <defs
     id="defs2">
    <style
       id="style3680">.cls-1{fill:#1a5f82}.cls-2{fill:none}.cls-3{fill:#00a0ff}.cls-4{fill:#00cb88}.cls-5{fill:#aeb0b9}.cls-6{fill:#fff}</style>
  </defs>
  <sodipodi:namedview
     id="base"
     pagecolor="#ffffff"
     bordercolor="#666666"
     borderopacity="1.0"
     inkscape:pageopacity="0.0"
     inkscape:pageshadow="2"
     inkscape:zoom="1.979899"
     inkscape:cx="62.68937"
     inkscape:cy="106.19669"
     inkscape:document-units="mm"
     inkscape:current-layer="Слой_1-2"
     showgrid="false"
     inkscape:window-width="1920"
     inkscape:window-height="1017"
     inkscape:window-x="-8"
     inkscape:window-y="-8"
     inkscape:window-maximized="1" />
  <metadata
     id="metadata5">
    <rdf:RDF>
      <cc:Work
         rdf:about="">
        <dc:format>image/svg+xml</dc:format>
        <dc:type
           rdf:resource="http://purl.org/dc/dcmitype/StillImage" />
        <dc:title></dc:title>
      </cc:Work>
    </rdf:RDF>
  </metadata>
  <g
     inkscape:label="Layer 1"
     inkscape:groupmode="layer"
     id="layer1"
     transform="translate(-0.44612321,-0.59480696)">
    <g
       data-name="Слой 2"
       id="Слой_2"
       transform="matrix(0.26458333,0,0,0.26458333,9.7232495,19.414097)">
      <g
         data-name="Layer 1"
         id="Layer_1">
        <g
           data-name="Слой_1"
           id="Слой_1-2">
          <path
             id="path3690-3"
             d="M 147.76683,127.3151 A 99.159779,99.159779 0 0 1 114.95661,146.05338 105.06562,105.06562 0 0 1 77.443595,152.28732 112.13804,112.13804 0 0 1 -2.2487853,119.4771 108.96639,108.96639 0 0 1 -35.059005,40.586748 110.31525,110.31525 0 0 1 -2.2487853,-38.303605 112.13804,112.13804 0 0 1 77.443595,-71.113826 a 105.02916,105.02916 0 0 1 37.513015,6.270397 137.07381,137.07381 0 0 1 32.81022,18.738282 l -12.50434,15.639539 a 103.89903,103.89903 0 0 0 -27.34185,-14.837511 83.848342,83.848342 0 0 0 -30.477045,-5.46837 90.8114,90.8114 0 0 0 -64.85487,26.576279 92.889381,92.889381 0 0 0 -27.34184,64.85487 92.014442,92.014442 0 0 0 92.19671,91.35824 83.848342,83.848342 0 0 0 30.477045,-5.46837 104.0084,104.0084 0 0 0 27.34185,-14.83751 z"
             class="cls-3"
             inkscape:connector-curvature="0"
             style="fill:#00a0ff;stroke-width:3.64558005" />
          <path
             id="path3692-3"
             d="m 127.46095,103.10845 a 86.691895,86.691895 0 0 1 -23.44108,13.26991 79.400735,79.400735 0 0 1 -26.576275,4.7028 80.858967,80.858967 0 0 1 -57.01688,-23.441079 78.999721,78.999721 0 0 1 -23.4410803,-57.016877 78.999721,78.999721 0 0 1 23.4410803,-57.016873 80.858967,80.858967 0 0 1 57.01688,-23.44108 79.327823,79.327823 0 0 1 26.576275,4.666342 86.618983,86.618983 0 0 1 23.44108,13.269912 l -9.36915,12.5043402 a 68.281715,68.281715 0 0 0 -18.738275,-11.7023122 70.614887,70.614887 0 0 0 -21.87348,-3.135199 64.927782,64.927782 0 0 0 -46.08013,18.7382822 64.16221,64.16221 0 0 0 0,92.1967218 64.927782,64.927782 0 0 0 46.04368,18.738282 70.614887,70.614887 0 0 0 21.87348,-3.1352 65.401707,65.401707 0 0 0 18.738275,-10.936742 z"
             class="cls-4"
             inkscape:connector-curvature="0"
             style="fill:#00cb88;stroke-width:3.64558005" />
          <path
             id="path3694-8"
             d="m 111.05583,82.000538 a 47.392541,47.392541 0 0 1 -16.405105,8.60357 45.788486,45.788486 0 0 1 -17.97271,3.135203 53.881674,53.881674 0 0 1 -37.51301,-14.837513 56.470036,56.470036 0 0 1 -15.63954,-38.278594 53.116102,53.116102 0 0 1 15.63954,-37.5130187 51.293312,51.293312 0 0 1 37.51301,-15.6395393 45.861398,45.861398 0 0 1 17.97271,3.1351992 47.392541,47.392541 0 0 1 16.405105,8.60356902 L 104.78544,7.0109553 A 54.683702,54.683702 0 0 0 91.515535,-0.02501378 45.715575,45.715575 0 0 0 76.678015,-3.1602128 43.746961,43.746961 0 0 0 46.200965,10.109698 a 43.382403,43.382403 0 0 0 0,60.917644 43.746961,43.746961 0 0 0 30.47705,13.269916 45.679119,45.679119 0 0 0 14.83752,-3.1352 54.683702,54.683702 0 0 0 13.269905,-7.03597 l 6.23394,7.80154 z"
             class="cls-5"
             inkscape:connector-curvature="0"
             style="fill:#aeb0b9;stroke-width:3.64558005" />
        </g>
      </g>
    </g>
  </g>
</svg>
